<?xml version="1.0" standalone="no"?><!DOCTYPE svg PUBLIC "-//W3C//DTD SVG 1.1//EN" "http://www.w3.org/Graphics/SVG/1.1/DTD/svg11.dtd"><svg t="1752148507508" class="icon" viewBox="0 0 1024 1024" version="1.1" xmlns="http://www.w3.org/2000/svg" p-id="4985" width="256" height="256" xmlns:xlink="http://www.w3.org/1999/xlink"><path d="M153.6 307.2h716.8v473.6a102.4 102.4 0 0 1-102.4 102.4H256a102.4 102.4 0 0 1-102.4-102.4V307.2z" fill="#518DE3" p-id="4986"></path><path d="M204.8 268.8h614.4v512a51.2 51.2 0 0 1-51.2 51.2H256a51.2 51.2 0 0 1-51.2-51.2V268.8z" fill="#FFFFFF" p-id="4987"></path><path d="M512 128l307.2 192H204.8z" fill="#FFFFFF" p-id="4988"></path><path d="M511.5904 439.0912l0.4096-0.4096 0.4096 0.4096a115.2 115.2 0 1 1 162.112 162.112l0.384 0.3968-126.7072 126.72a51.2 51.2 0 0 1-72.3968 0l-126.72-126.72 0.4096-0.4096a115.2 115.2 0 1 1 162.112-162.112z" fill="#518DE3" p-id="4989"></path><path d="M496.2688 461.2736L512 479.0272c15.5264-17.8432 8.4096-9.9456 15.6928-17.7024A89.6 89.6 0 1 1 657.024 582.4l0.256-0.0128-126.72 126.72a25.6 25.6 0 0 1-36.2112 0l-124.608-124.6208a89.6 89.6 0 1 1 126.528-123.2256z" fill="#DDEBFF" p-id="4990"></path><path d="M499.2 76.8l465.5744 268.8-25.6 44.3392L473.6 121.1392z" fill="#518DE3" p-id="4991"></path><path d="M516.7744 76.8L51.2 345.6l25.6 44.3392 465.5744-268.8z" fill="#518DE3" p-id="4992"></path></svg>