<?xml version="1.0" standalone="no"?><!DOCTYPE svg PUBLIC "-//W3C//DTD SVG 1.1//EN" "http://www.w3.org/Graphics/SVG/1.1/DTD/svg11.dtd"><svg t="1752739894765" class="icon" viewBox="0 0 1024 1024" version="1.1" xmlns="http://www.w3.org/2000/svg" p-id="4653" data-spm-anchor-id="a313x.search_index.0.i1.655e3a81X36NY7" xmlns:xlink="http://www.w3.org/1999/xlink" width="256" height="256"><path d="M880.981333 937.258667h-263.253333v-60.16h255.402667a362.965333 362.965333 0 0 0-234.666667-311.466667 254.122667 254.122667 0 0 1-257.578667 0 362.666667 362.666667 0 0 0-234.922666 311.466667h471.893333v60.16H138.154667a52.778667 52.778667 0 0 1-52.778667-56.064 423.125333 423.125333 0 0 1 289.536-377.130667l14.037333-4.736 12.245334 8.234667a193.834667 193.834667 0 0 0 216.490666 0l12.245334-8.234667 14.037333 4.736a422.4 422.4 0 0 1 289.536 377.130667 52.778667 52.778667 0 0 1-52.522667 56.064z" fill="#424649" p-id="4654" data-spm-anchor-id="a313x.search_index.0.i3.655e3a81X36NY7" class=""></path><path d="M509.482667 550.528a253.909333 253.909333 0 1 1 253.909333-253.909333 254.208 254.208 0 0 1-253.909333 253.909333z m0-448a193.877333 193.877333 0 1 0 193.877333 193.877333 194.005333 194.005333 0 0 0-193.877333-193.877333z" fill="#424649" p-id="4655" data-spm-anchor-id="a313x.search_index.0.i2.655e3a81X36NY7" class="selected"></path><path d="M601.514667 306.901333a19.968 19.968 0 0 0-20.736 19.114667 72.021333 72.021333 0 0 1-143.616 0 20.778667 20.778667 0 0 0-41.429334 0 113.621333 113.621333 0 0 0 226.474667 0 19.968 19.968 0 0 0-20.693333-19.114667z" fill="#424649" p-id="4656" data-spm-anchor-id="a313x.search_index.0.i4.655e3a81X36NY7" class="selected"></path><path d="M512 712.533333m53.333333 0l128.384 0q53.333333 0 53.333334 53.333334l0 0q0 53.333333-53.333334 53.333333l-128.384 0q-53.333333 0-53.333333-53.333333l0 0q0-53.333333 53.333333-53.333334Z" fill="#4585F5" p-id="4657"></path></svg>